# xmcd
#
# Track frame offsets: 
#        150
#        12014
#        22340
#        37761
#        47689
#        70857
#        86246
#        97158
#        118718
#        131156
#        143098
#        153121
#
# Disc length: 2251 seconds
#
# Revision: 1
# Processed by: cddbd v1.5.2PL0 Copyright (c) Steve Scherf et al.
# Submitted via: ExactAudioCopy v0.99pb4
#
DISCID=9e08c90c
DTITLE=Rosie Flores and The Pine Valley Cosmonauts - Girl Of The Century
DYEAR=2009
DGENRE=Alt. Rock
TTITLE0=Chauffeur
TTITLE1=This Little Girls Gone Rockin'
TTITLE2=Halfway Home
TTITLE3=I Ain't Got You
TTITLE4=Dark Enough At Midnight
TTITLE5=Little Bells
TTITLE6=Get Rhythm
TTITLE7=Last Song
TTITLE8=You're The One
TTITLE9=This Cat's In The Doghouse
TTITLE10=Whose Gonna Take Your Garbage Out
TTITLE11=Girl Of The Century
EXTD=
EXTT0=
EXTT1=
EXTT2=
EXTT3=
EXTT4=
EXTT5=
EXTT6=
EXTT7=
EXTT8=
EXTT9=
EXTT10=
EXTT11=
PLAYORDER=
